HIERARCHY
ROOT Hips
{
  OFFSET 0.000000 0.000000 0.000000
  CHANNELS 6 Xposition Yposition Zposition Xrotation Yrotation Zrotation
  JOINT Spine
  {
    OFFSET 0.384862 23.362435 -6.545746
    CHANNELS 3 Xrotation Yrotation Zrotation
    JOINT Chest
    {
      OFFSET 0.384862 23.362435 -6.545746
      CHANNELS 3 Xrotation Yrotation Zrotation
      JOINT Neck
      {
        OFFSET 0.000000 3.494450 0.000000
        CHANNELS 3 Xrotation Yrotation Zrotation
        JOINT Head
        {
          OFFSET 0.000000 3.104519 0.000000
          CHANNELS 3 Xrotation Yrotation Zrotation
          End Site
          {
            OFFSET 0.000000 0.931356 0.000000
          }
        }
      }
      JOINT LeftCollar
      {
        OFFSET 3.000000 4.000000 0.000000
        CHANNELS 3 Xrotation Yrotation Zrotation
        JOINT LeftShoulder
        {
          OFFSET 16.753096 -1.874518 -2.350806
          CHANNELS 3 Xrotation Yrotation Zrotation
          JOINT LeftArm
          {
            OFFSET 9.215470 -17.927143 -6.750691
            CHANNELS 3 Xrotation Yrotation Zrotation
            JOINT LeftForeArm
            {
              OFFSET -8.631796 -1.807562 -13.626102
              CHANNELS 3 Xrotation Yrotation Zrotation
              JOINT LeftHand
              {
                OFFSET -3.581741 1.574515 -2.219805
                CHANNELS 3 Xrotation Yrotation Zrotation
                End Site
                {
                  OFFSET -1.074522 0.472355 -0.665942
                }
              }
            }
          }
        }
      }
      JOINT RightCollar
      {
        OFFSET -3.000000 4.000000 0.000000
        CHANNELS 3 Xrotation Yrotation Zrotation
        JOINT RightShoulder
        {
          OFFSET -16.753096 1.874518 2.350806
          CHANNELS 3 Xrotation Yrotation Zrotation
          JOINT RightArm
          {
            OFFSET -4.024878 -26.092607 -12.467419
            CHANNELS 3 Xrotation Yrotation Zrotation
            JOINT RightForeArm
            {
              OFFSET 6.746233 1.826222 -21.720462
              CHANNELS 3 Xrotation Yrotation Zrotation
              JOINT RightHand
              {
                OFFSET 4.773503 3.298478 -5.155945
                CHANNELS 3 Xrotation Yrotation Zrotation
                End Site
                {
                  OFFSET 1.432051 0.989543 -1.546783
                }
              }
            }
          }
        }
      }
    }
  }
  JOINT LeftUpLeg
  {
    OFFSET 9.108096 0.180174 1.189578
    CHANNELS 3 Xrotation Yrotation Zrotation
    JOINT LeftLeg
    {
      OFFSET 8.006705 -41.225060 -10.059709
      CHANNELS 3 Xrotation Yrotation Zrotation
      JOINT LeftFoot
      {
        OFFSET 4.362087 -38.764367 9.241715
        CHANNELS 3 Xrotation Yrotation Zrotation
        End Site
        {
          OFFSET 1.308626 -11.629310 2.772515
        }
      }
    }
  }
  JOINT RightUpLeg
  {
    OFFSET -9.108096 -0.180174 -1.189578
    CHANNELS 3 Xrotation Yrotation Zrotation
    JOINT RightLeg
    {
      OFFSET -2.107032 -32.214779 1.747249
      CHANNELS 3 Xrotation Yrotation Zrotation
      JOINT RightFoot
      {
        OFFSET -6.367369 -42.204761 13.125504
        CHANNELS 3 Xrotation Yrotation Zrotation
        End Site
        {
          OFFSET -1.910211 -12.661428 3.937651
        }
      }
    }
  }
}
MOTION
Frames: 6
Frame Time: 0.083333
0.052705 0.141873 0.159262 1.849272 -0.033105 -0.011819 0.000000 0.000000 0.000000 -15.523798 8.034316 -4.644739 -60.445429 -5.797791 -1.803117 0.000000 0.000000 0.000000 14.358733 -7.938778 6.392029 1.808685 1.867444 0.708607 0.598770 -2.712516 -1.895354 -2.695414 0.274763 0.850541 0.000000 0.000000 0.000000 14.358733 -7.938778 6.392029 0.935899 1.256356 -0.112954 0.834109 1.017178 0.804197 -1.170230 -0.058377 0.341310 0.000000 0.000000 0.000000 -2.296203 -0.075635 0.103808 -1.108631 0.061881 0.390064 0.000000 0.000000 0.000000 6.666945 -0.516417 -0.258959 -22.114201 1.621731 -1.608488 0.000000 0.000000 0.000000
0.054058 0.143352 0.163725 2.004902 -0.038183 -0.026444 0.000000 0.000000 0.000000 -15.521744 8.168230 -4.630257 -60.768142 -5.899010 -2.050080 0.000000 0.000000 0.000000 14.211078 -7.938862 6.391897 1.561461 1.522380 0.926341 0.817756 -2.275575 -2.110411 -2.592645 0.308294 0.931305 0.000000 0.000000 0.000000 14.211078 -7.938862 6.391897 0.902680 1.170129 -0.206115 0.648132 0.961173 0.874461 -1.081490 -0.157874 0.240174 0.000000 0.000000 0.000000 -2.424983 -0.068496 0.120070 -0.909652 0.120019 0.532437 0.000000 0.000000 0.000000 6.117196 -0.493657 -0.292069 -21.304413 1.544418 -1.601280 0.000000 0.000000 0.000000
0.059814 0.145958 0.169474 6.124094 -0.132301 -0.169072 0.000000 0.000000 0.000000 -15.555622 6.129916 -5.863836 -62.179464 -7.667947 -1.813378 0.000000 0.000000 0.000000 10.001248 -7.939506 6.410919 3.829523 3.615678 3.247693 2.829734 -5.574076 -6.506062 -6.946288 1.290474 2.643483 0.000000 0.000000 0.000000 10.001248 -7.939506 6.410919 2.554938 3.335213 -0.896251 1.201685 2.405494 2.767784 -2.787371 -0.698062 0.372164 0.000000 0.000000 0.000000 -7.249731 -0.216830 0.611608 -2.062502 0.630032 2.044001 0.000000 0.000000 0.000000 0.281698 -0.314846 -1.210788 -18.013882 0.603164 -1.500761 0.000000 0.000000 0.000000
0.073054 0.147377 0.174431 10.091786 -0.264135 -0.567767 0.000000 0.000000 0.000000 -15.583967 4.415778 -7.124510 -65.138824 -10.879628 -3.504606 0.000000 0.000000 0.000000 5.974716 -7.940068 6.456221 4.167265 4.406189 6.130912 5.774198 -7.076605 -10.506893 -9.161709 3.342899 3.106343 0.000000 0.000000 0.000000 5.974716 -7.940068 6.456221 3.939350 5.669078 -1.970047 0.310358 2.527931 5.058315 -3.453083 -1.504013 -0.051185 0.000000 0.000000 0.000000 -11.513033 -0.506062 2.197947 -1.916700 1.754438 3.767388 0.000000 0.000000 0.000000 -5.576410 -0.106910 -2.543077 -13.781764 -0.606789 -0.725558 0.000000 0.000000 0.000000
0.089147 0.146510 0.180351 12.648159 -0.384225 -1.137162 0.000000 0.000000 0.000000 -15.629828 1.457154 -9.002948 -66.240409 -15.497306 -5.230602 0.000000 0.000000 0.000000 3.359558 -7.936387 6.556797 3.820565 7.168023 7.403522 9.820706 -10.767225 -12.090733 -10.327674 5.961819 0.587593 0.000000 0.000000 0.000000 3.359558 -7.936387 6.556797 5.274386 9.259912 -1.988144 0.238220 1.568591 7.251486 -3.810210 -1.512142 0.250237 0.000000 0.000000 0.000000 -13.302401 -0.985091 5.242328 -2.639197 2.770256 2.942623 0.000000 0.000000 0.000000 -4.910476 -0.112836 -4.293506 -18.408990 -1.716994 0.578863 0.000000 0.000000 0.000000
0.099872 0.140162 0.188050 15.692538 -0.475628 -1.625421 0.000000 0.000000 0.000000 -15.667075 -1.028681 -11.085928 -65.508758 -19.897946 -6.807831 0.000000 0.000000 0.000000 0.383187 -7.925757 6.660917 2.114308 9.314773 7.663743 18.903962 -13.030843 -14.488129 -14.180433 5.982394 -1.048821 0.000000 0.000000 0.000000 0.383187 -7.925757 6.660917 5.881944 11.485388 -0.062201 2.732143 0.617386 8.343576 -4.505549 -1.005868 1.390585 0.000000 0.000000 0.000000 -12.919029 -0.780200 7.276712 -4.935361 2.570534 0.210062 0.000000 0.000000 0.000000 -5.743654 -0.236639 -6.791962 -22.003451 -3.226433 1.951613 0.000000 0.000000 0.000000
